REM Generated by IcecastMetadataRecorder
REM 2020-07-29T21:16:11.222Z
TITLE "isics-all"
FILE "isics-all.mp3" WAVE
  TRACK 1 AUDIO
    TITLE "2020-07-29T21:19:03.446Z TO:24605 Dallas County Law 1 FROM:UNKNOWN"
    INDEX 01 02:52:17
  TRACK 2 AUDIO
    TITLE "2020-07-29T21:19:07.638Z TO:24605 Dallas County Law 1 FROM:2559984"
    INDEX 01 02:56:31
  TRACK 3 AUDIO
    TITLE "2020-07-29T21:19:09.750Z TO:59908 Warren County Law 1 FROM:9111050"
    INDEX 01 02:58:39
  TRACK 4 AUDIO
    TITLE "2020-07-29T21:19:18.134Z TO:7 Polk County - Westcom Law Enforcement 4 FROM:1377"
    INDEX 01 03:06:67
  TRACK 5 AUDIO
    TITLE "2020-07-29T21:19:25.142Z TO:24605 Dallas County Law 1 FROM:2510011"
    INDEX 01 03:13:68
  TRACK 6 AUDIO
    TITLE "2020-07-29T21:19:28.630Z TO:59908 Warren County Law 1 FROM:9199991"
    INDEX 01 03:17:30
  TRACK 7 AUDIO
    TITLE "2020-07-29T21:19:31.446Z TO:7 Polk County - Westcom Law Enforcement 4 FROM:1481"
    INDEX 01 03:20:17
  TRACK 8 AUDIO
    TITLE "2020-07-29T21:19:37.046Z TO:24605 Dallas County Law 1 FROM:2559984"
    INDEX 01 03:25:61
  TRACK 9 AUDIO
    TITLE "2020-07-29T21:19:39.830Z TO:7 Polk County - Westcom Law Enforcement 4 FROM:1377"
    INDEX 01 03:28:45
  TRACK 10 AUDIO
    TITLE "END"
    INDEX 01 03:39:08